{
  "accessors": [
    {
      "bufferView": 2,
      "componentType": 5126,
      "count": 675,
      "max": [
        0.07324153929948807,
        0.07324153929948807,
        0.48426032066345215
      ],
      "min": [
        -0.07324153929948807,
        -0.07324153929948807,
        0.0015624311054125428
      ],
      "type": "VEC3"
    },
    {
      "bufferView": 2,
      "byteOffset": 8100,
      "componentType": 5126,
      "count": 675,
      "max": [
        0.9998061060905457,
        0.9998061060905457,
        1.0
      ],
      "min": [
        -0.9998061060905457,
        -0.9998061060905457,
        -0.9728114008903503
      ],
      "type": "VEC3"
    },
    {
      "bufferView": 3,
      "componentType": 5126,
      "count": 675,
      "max": [
        1.0,
        1.0,
        0.2875711917877197,
        1.0
      ],
      "min": [
        -1.0,
        -1.0,
        -0.28757333755493164,
        1.0
      ],
      "type": "VEC4"
    },
    {
      "bufferView": 1,
      "componentType": 5126,
      "count": 675,
      "max": [
        0.4503560960292816,
        0.861972987651825
      ],
      "min": [
        0.001953125,
        0.001953125
      ],
      "type": "VEC2"
    },
    {
      "bufferView": 1,
      "byteOffset": 5400,
      "componentType": 5126,
      "count": 675,
      "max": [
        0.4503560960292816,
        0.861972987651825
      ],
      "min": [
        0.001953125,
        0.001953125
      ],
      "type": "VEC2"
    },
    {
      "bufferView": 1,
      "byteOffset": 10800,
      "componentType": 5126,
      "count": 675,
      "max": [
        0.4503560960292816,
        0.861972987651825
      ],
      "min": [
        0.001953125,
        0.001953125
      ],
      "type": "VEC2"
    },
    {
      "bufferView": 1,
      "byteOffset": 16200,
      "componentType": 5126,
      "count": 675,
      "max": [
        0.4503560960292816,
        0.861972987651825
      ],
      "min": [
        0.001953125,
        0.001953125
      ],
      "type": "VEC2"
    },
    {
      "bufferView": 0,
      "componentType": 5125,
      "count": 3672,
      "type": "SCALAR"
    },
    {
      "bufferView": 2,
      "byteOffset": 16200,
      "componentType": 5126,
      "count": 419,
      "max": [
        0.021321777254343033,
        0.01543569378554821,
        0.01543569378554821
      ],
      "min": [
        -0.0212477445602417,
        -0.47584813833236694,
        -0.01543569378554821
      ],
      "type": "VEC3"
    },
    {
      "bufferView": 2,
      "byteOffset": 21228,
      "componentType": 5126,
      "count": 419,
      "max": [
        0.9999842047691345,
        0.5092436075210571,
        0.9999489188194275
      ],
      "min": [
        -0.9999867677688599,
        -1.0,
        -0.9999488592147827
      ],
      "type": "VEC3"
    },
    {
      "bufferView": 3,
      "byteOffset": 10800,
      "componentType": 5126,
      "count": 419,
      "max": [
        0.9999999403953552,
        0.9998205900192261,
        1.0,
        1.0
      ],
      "min": [
        -0.9999999403953552,
        -0.999985933303833,
        -1.0,
        1.0
      ],
      "type": "VEC4"
    },
    {
      "bufferView": 1,
      "byteOffset": 21600,
      "componentType": 5126,
      "count": 419,
      "max": [
        0.998046875,
        0.9023690223693848
      ],
      "min": [
        0.0019531291909515858,
        0.001953133847564459
      ],
      "type": "VEC2"
    },
    {
      "bufferView": 1,
      "byteOffset": 24952,
      "componentType": 5126,
      "count": 419,
      "max": [
        0.998046875,
        0.9023690223693848
      ],
      "min": [
        0.0019531291909515858,
        0.001953133847564459
      ],
      "type": "VEC2"
    },
    {
      "bufferView": 1,
      "byteOffset": 28304,
      "componentType": 5126,
      "count": 419,
      "max": [
        0.998046875,
        0.9023690223693848
      ],
      "min": [
        0.0019531291909515858,
        0.001953133847564459
      ],
      "type": "VEC2"
    },
    {
      "bufferView": 1,
      "byteOffset": 31656,
      "componentType": 5126,
      "count": 419,
      "max": [
        0.998046875,
        0.9023690223693848
      ],
      "min": [
        0.0019531291909515858,
        0.001953133847564459
      ],
      "type": "VEC2"
    },
    {
      "bufferView": 0,
      "byteOffset": 14688,
      "componentType": 5125,
      "count": 1632,
      "type": "SCALAR"
    }
  ],
  "asset": {
    "extras": {
      "author": "Sousinho (https://sketchfab.com/sousinho)",
      "license": "CC-BY-4.0 (http://creativecommons.org/licenses/by/4.0/)",
      "source": "https://sketchfab.com/3d-models/screwdriver-aa1c39ef654447d59aea100a24c0e98e",
      "title": "Screwdriver"
    },
    "generator": "Sketchfab-14.64.0",
    "version": "2.0"
  },
  "bufferViews": [
    {
      "buffer": 0,
      "byteLength": 21216,
      "name": "floatBufferViews",
      "target": 34963
    },
    {
      "buffer": 0,
      "byteLength": 35008,
      "byteOffset": 21216,
      "byteStride": 8,
      "name": "floatBufferViews",
      "target": 34962
    },
    {
      "buffer": 0,
      "byteLength": 26256,
      "byteOffset": 56224,
      "byteStride": 12,
      "name": "floatBufferViews",
      "target": 34962
    },
    {
      "buffer": 0,
      "byteLength": 17504,
      "byteOffset": 82480,
      "byteStride": 16,
      "name": "floatBufferViews",
      "target": 34962
    }
  ],
  "buffers": [
    {
      "byteLength": 99984,
      "uri": "scene.bin"
    }
  ],
  "images": [
    {
      "uri": "textures/SM_screwdriver_1_baseColor.png"
    },
    {
      "uri": "textures/SM_screwdriver_1_metallicRoughness.png"
    },
    {
      "uri": "textures/SM_screwdriver_1_normal.png"
    }
  ],
  "materials": [
    {
      "doubleSided": true,
      "name": "SM_screwdriver_1",
      "normalTexture": {
        "index": 2
      },
      "pbrMetallicRoughness": {
        "baseColorTexture": {
          "index": 0
        },
        "metallicRoughnessTexture": {
          "index": 1
        }
      }
    }
  ],
  "meshes": [
    {
      "name": "Object_0",
      "primitives": [
        {
          "attributes": {
            "NORMAL": 1,
            "POSITION": 0,
            "TANGENT": 2,
            "TEXCOORD_0": 3,
            "TEXCOORD_1": 4,
            "TEXCOORD_2": 5,
            "TEXCOORD_3": 6
          },
          "indices": 7,
          "material": 0,
          "mode": 4
        }
      ]
    },
    {
      "name": "Object_1",
      "primitives": [
        {
          "attributes": {
            "NORMAL": 9,
            "POSITION": 8,
            "TANGENT": 10,
            "TEXCOORD_0": 11,
            "TEXCOORD_1": 12,
            "TEXCOORD_2": 13,
            "TEXCOORD_3": 14
          },
          "indices": 15,
          "material": 0,
          "mode": 4
        }
      ]
    }
  ],
  "nodes": [
    {
      "children": [
        1
      ],
      "matrix": [
        1.0,
        0.0,
        0.0,
        0.0,
        0.0,
        2.220446049250313e-16,
        -1.0,
        0.0,
        0.0,
        1.0,
        2.220446049250313e-16,
        0.0,
        0.0,
        0.0,
        0.0,
        1.0
      ],
      "name": "Sketchfab_model"
    },
    {
      "children": [
        2
      ],
      "name": "root"
    },
    {
      "children": [
        3,
        5
      ],
      "matrix": [
        1.0,
        0.0,
        0.0,
        0.0,
        0.0,
        2.220446049250313e-16,
        1.0,
        0.0,
        0.0,
        -1.0,
        2.220446049250313e-16,
        0.0,
        0.0,
        0.0,
        0.0,
        1.0
      ],
      "name": "GLTF_SceneRootNode"
    },
    {
      "children": [
        4
      ],
      "matrix": [
        1.0,
        0.0,
        0.0,
        0.0,
        0.0,
        8.429369480200677e-08,
        -0.9999999999999966,
        0.0,
        0.0,
        0.9999999999999966,
        8.429369480200677e-08,
        0.0,
        0.00029441341757774353,
        0.005783863365650177,
        0.002573021687567234,
        1.0
      ],
      "name": "SM_screendriver_1_head.001_2"
    },
    {
      "mesh": 0,
      "name": "Object_4"
    },
    {
      "children": [
        6
      ],
      "matrix": [
        1.0,
        0.0,
        0.0,
        0.0,
        0.0,
        1.0,
        0.0,
        0.0,
        0.0,
        0.0,
        1.0,
        0.0,
        0.0,
        -0.005638696253299713,
        0.002573021687567234,
        1.0
      ],
      "name": "SM_screendriver_1.001_3"
    },
    {
      "mesh": 1,
      "name": "Object_6"
    }
  ],
  "samplers": [
    {
      "magFilter": 9729,
      "minFilter": 9987,
      "wrapS": 10497,
      "wrapT": 10497
    }
  ],
  "scene": 0,
  "scenes": [
    {
      "name": "Sketchfab_Scene",
      "nodes": [
        0
      ]
    }
  ],
  "textures": [
    {
      "sampler": 0,
      "source": 0
    },
    {
      "sampler": 0,
      "source": 1
    },
    {
      "sampler": 0,
      "source": 2
    }
  ]
}
